<svg xmlns="http://www.w3.org/2000/svg" viewBox="0 0 800 500" fill="none">
  <rect width="800" height="500" rx="16" fill="#052e16"/>
  <rect x="0" y="0" width="800" height="52" rx="16" fill="#14532d"/>
  <rect x="16" y="19" width="14" height="14" rx="7" fill="#ef4444"/>
  <rect x="38" y="19" width="14" height="14" rx="7" fill="#f59e0b"/>
  <rect x="60" y="19" width="14" height="14" rx="7" fill="#22c55e"/>
  <text x="100" y="35" font-family="'IBM Plex Mono', monospace" font-size="13" fill="#86efac">agrotrack.app</text>
  <rect x="40" y="85" width="420" height="50" rx="8" fill="#14532d"/>
  <text x="60" y="120" font-family="'IBM Plex Mono', monospace" font-size="24" font-weight="700" fill="#dcfce7">AgroTrack</text>
  <rect x="40" y="150" width="340" height="12" rx="4" fill="#4ade80" opacity="0.6"/>
  <rect x="40" y="172" width="280" height="10" rx="4" fill="#166534"/>
  <rect x="40" y="210" width="150" height="44" rx="10" fill="#22c55e"/>
  text x="65" y="238" font-family="'IBM Plex Mono', monospace" font-size="14" font-weight="700" fill="#052e16">Ver cultivos</text>
  <rect x="500" y="85" width="260" height="330" rx="12" fill="#14532d"/>
  <rect x="520" y="105" width="140" height="14" rx="4" fill="#4ade80"/>
  <rect x="520" y="130" width="200" height="8" rx="4" fill="#166534"/>
  <rect x="520" y="155" width="220" height="120" rx="8" fill="#052e16"/>
  <circle cx="630" cy="215" r="35" fill="#22c55e" opacity="0.3"/>
  <circle cx="630" cy="215" r="20" fill="#4ade80" opacity="0.5"/>
  <rect x="520" y="290" width="100" height="10" rx="4" fill="#4ade80"/>
  <rect x="520" y="310" width="180" height="8" rx="4" fill="#166534"/>
  <rect x="520" y="335" width="150" height="8" rx="4" fill="#166534"/>
  <rect x="520" y="370" width="220" height="30" rx="8" fill="#052e16"/>
  <rect x="40" y="290" width="180" height="120" rx="12" fill="#14532d"/>
  <rect x="60" y="310" width="100" height="10" rx="4" fill="#4ade80"/>
  <rect x="60" y="330" width="130" height="60" rx="6" fill="#052e16"/>
  <rect x="240" y="290" width="220" height="120" rx="12" fill="#14532d"/>
  <rect x="260" y="310" width="140" height="10" rx="4" fill="#4ade80"/>
  <rect x="260" y="330" width="180" height="60" rx="6" fill="#052e16"/>
</svg>