<svg xmlns="http://www.w3.org/2000/svg" viewBox="0 0 300 520" fill="none">
  <rect width="300" height="520" rx="28" fill="#1a0a0a"/>
  <rect x="8" y="8" width="284" height="504" rx="22" fill="#2a1010"/>
  <rect x="22" y="50" width="180" height="20" rx="6" fill="#fbbf24"/>
  <rect x="22" y="82" width="120" height="14" rx="4" fill="#f8fafc"/>
  <rect x="22" y="115" width="256" height="140" rx="16" fill="#0f172a"/>
  <circle cx="150" cy="180" r="45" fill="#f97316" opacity="0.8"/>
  <rect x="22" y="270" width="256" height="90" rx="12" fill="#0f172a"/>
  <rect x="40" y="285" width="120" height="10" rx="4" fill="#fbbf24"/>
  <rect x="40" y="305" width="180" height="8" rx="4" fill="#475569"/>
  <rect x="40" y="325" width="60" height="8" rx="4" fill="#475569"/>
  <rect x="22" y="375" width="256" height="80" rx="12" fill="#0f172a"/>
  <rect x="40" y="390" width="100" height="10" rx="4" fill="#fbbf24"/>
  <rect x="40" y="410" width="160" height="8" rx="4" fill="#475569"/>
  <rect x="40" y="430" width="80" height="8" rx="4" fill="#475569"/>
  <rect x="22" y="470" width="256" height="38" rx="19" fill="#f97316"/>
  <text x="90" y="494" font-family="'IBM Plex Mono', monospace" font-size="14" font-weight="700" fill="#0f0a0a">Agregar al carrito</text>
</svg>