<svg xmlns="http://www.w3.org/2000/svg" viewBox="0 0 800 500" fill="none">
  <rect width="800" height="500" rx="16" fill="#0f172a"/>
  <rect x="0" y="0" width="800" height="44" rx="16" fill="#1e293b"/>
  <rect x="16" y="15" width="14" height="14" rx="7" fill="#ef4444"/>
  <rect x="38" y="15" width="14" height="14" rx="7" fill="#f59e0b"/>
  <rect x="60" y="15" width="14" height="14" rx="7" fill="#22c55e"/>
  <rect x="110" y="16" width="580" height="12" rx="6" fill="#334155"/>
  <rect x="40" y="80" width="560" height="40" rx="8" fill="#1e293b"/>
  <rect x="40" y="136" width="320" height="18" rx="4" fill="#334155"/>
  <rect x="40" y="164" width="420" height="14" rx="4" fill="#475569"/>
  <rect x="40" y="200" width="160" height="44" rx="10" fill="#3b82f6"/>
  <rect x="220" y="200" width="140" height="44" rx="10" fill="#1e293b"/>
  <rect x="40" y="270" width="220" height="170" rx="12" fill="#1e293b"/>
  <rect x="280" y="270" width="220" height="170" rx="12" fill="#1e293b"/>
  <rect x="520" y="270" width="220" height="170" rx="12" fill="#1e293b"/>
  <rect x="40" y="80" width="180" height="40" rx="8" fill="#3b82f6" opacity="0.5"/>
  <text x="55" y="106" font-family="'IBM Plex Mono', monospace" font-size="16" font-weight="700" fill="#f8fafc">Hysion</text>
</svg>