<svg xmlns="http://www.w3.org/2000/svg" viewBox="0 0 300 520" fill="none">
  <rect width="300" height="520" rx="28" fill="#0a0a0a"/>
  <rect x="8" y="8" width="284" height="504" rx="22" fill="#1a1a1a"/>
  <rect x="22" y="50" width="116" height="16" rx="4" fill="#bbf7d0"/>
  <rect x="22" y="76" width="200" height="28" rx="8" fill="#f8fafc"/>
  <rect x="22" y="115" width="140" height="14" rx="4" fill="#64748b"/>
  <rect x="22" y="155" width="256" height="200" rx="16" fill="#0f172a"/>
  <rect x="40" y="175" width="100" height="10" rx="4" fill="#22c55e"/>
  <rect x="40" y="195" width="160" height="8" rx="4" fill="#475569"/>
  <rect x="40" y="212" width="140" height="8" rx="4" fill="#475569"/>
  <rect x="40" y="245" width="70" height="40" rx="12" fill="#3b82f6"/>
  <rect x="125" y="245" width="70" height="40" rx="12" fill="#dc2626"/>
  <rect x="22" y="375" width="256" height="70" rx="16" fill="#0f172a"/>
  <rect x="22" y="460" width="250" height="48" rx="24" fill="#22c55e"/>
  <text x="60" y="490" font-family="'IBM Plex Mono', monospace" font-size="18" font-weight="700" fill="#0a0a0a">Pagar ahora</text>
</svg>